<?xml version="1.0" encoding="utf-8"?>
<svg xmlns="http://www.w3.org/2000/svg"
	xmlns:xlink="http://www.w3.org/1999/xlink"
	width="24px" height="24px" viewBox="0 0 24 24">
<path fillRule="evenodd" d="M 23.43 11.37C 23.39 11.37 23.36 11.38 23.31 11.38 22.98 11.38 22.7 11.14 22.64 10.81 22.24 8.45 21.12 6.3 19.41 4.58 17.69 2.88 15.54 1.76 13.17 1.36 12.8 1.29 12.55 0.94 12.61 0.57 12.68 0.2 13.03-0.06 13.4 0.01 16.05 0.46 18.45 1.71 20.37 3.62 22.29 5.54 23.54 7.94 23.99 10.59 24.06 10.96 23.8 11.31 23.43 11.37ZM 13.21 4.36C 14.82 4.64 16.28 5.39 17.45 6.55 18.61 7.71 19.37 9.18 19.64 10.78 19.7 11.16 19.45 11.51 19.08 11.57 19.04 11.58 19 11.58 18.96 11.58 18.63 11.58 18.34 11.35 18.29 11.02 18.06 9.69 17.44 8.48 16.47 7.52 15.51 6.56 14.3 5.93 12.97 5.71 12.6 5.65 12.35 5.29 12.42 4.92 12.48 4.55 12.83 4.3 13.21 4.36ZM 8.66 8.87C 8.29 9.25 7.9 9.65 7.49 10.03 7.8 10.71 8.22 11.39 8.86 12.19 10.17 13.79 11.53 15.03 13.03 15.99 13.18 16.08 13.35 16.16 13.53 16.26 13.66 16.32 13.79 16.39 13.92 16.46 13.92 16.46 15.53 14.86 15.53 14.86 16.04 14.35 16.64 14.08 17.26 14.08 17.89 14.08 18.49 14.36 18.98 14.87 18.98 14.87 21.76 17.66 21.76 17.66 22.27 18.16 22.54 18.77 22.54 19.4 22.54 20.02 22.28 20.63 21.78 21.15 21.56 21.38 21.34 21.59 21.12 21.8 20.8 22.11 20.49 22.4 20.23 22.72 20.23 22.73 20.22 22.73 20.21 22.74 19.44 23.58 18.45 24 17.28 24 17.18 24 17.07 23.99 16.96 23.99 15.22 23.88 13.67 23.23 12.5 22.67 9.45 21.2 6.77 19.11 4.55 16.46 2.72 14.26 1.49 12.21 0.67 9.99 0.33 9.09-0.1 7.71 0.02 6.24 0.1 5.32 0.47 4.53 1.12 3.88 1.12 3.88 2.85 2.14 2.85 2.14 2.85 2.14 2.85 2.14 2.86 2.13 3.36 1.65 3.96 1.39 4.58 1.39 5.2 1.39 5.79 1.65 6.28 2.13 6.61 2.44 6.93 2.76 7.23 3.08 7.39 3.24 7.55 3.4 7.71 3.56 7.71 3.56 9.09 4.94 9.09 4.94 10.16 6 10.16 7.38 9.09 8.44 8.95 8.59 8.81 8.73 8.66 8.87ZM 8.13 5.91C 8.13 5.91 6.74 4.52 6.74 4.52 6.58 4.36 6.42 4.19 6.26 4.03 5.95 3.71 5.66 3.41 5.35 3.13 5.34 3.12 5.34 3.12 5.33 3.11 5.17 2.95 4.91 2.76 4.59 2.76 4.33 2.76 4.07 2.88 3.82 3.12 3.82 3.12 2.09 4.84 2.09 4.84 1.67 5.26 1.44 5.75 1.39 6.35 1.31 7.27 1.49 8.26 1.96 9.52 2.72 11.58 3.88 13.51 5.61 15.59 7.71 18.09 10.23 20.06 13.1 21.45 14.15 21.95 15.55 22.54 17.05 22.63 17.13 22.64 17.21 22.64 17.29 22.64 18.08 22.64 18.68 22.38 19.2 21.83 19.51 21.46 19.84 21.13 20.17 20.82 20.39 20.61 20.6 20.41 20.79 20.2 21.31 19.66 21.31 19.13 20.79 18.62 20.79 18.62 17.99 15.82 17.99 15.82 17.99 15.82 17.99 15.82 17.98 15.81 17.83 15.64 17.57 15.44 17.25 15.44 16.93 15.44 16.66 15.65 16.49 15.82 16.49 15.82 14.75 17.56 14.75 17.56 14.67 17.64 14.4 17.91 13.98 17.91 13.81 17.91 13.65 17.87 13.48 17.78 13.46 17.77 13.44 17.75 13.42 17.74 13.27 17.65 13.1 17.57 12.92 17.48 12.71 17.37 12.5 17.27 12.29 17.14 10.66 16.11 9.19 14.77 7.79 13.04 7.79 13.04 7.78 13.04 7.78 13.04 7.01 12.06 6.5 11.24 6.14 10.37 6.14 10.35 6.13 10.34 6.13 10.32 6.04 10.03 5.96 9.61 6.39 9.17 6.4 9.16 6.41 9.16 6.42 9.15 6.86 8.75 7.26 8.35 7.69 7.91 7.84 7.77 7.98 7.62 8.13 7.48 8.66 6.94 8.66 6.44 8.13 5.91Z" fill="rgb(255,129,81)"/></svg>