<?xml version="1.0" standalone="no"?>
<!DOCTYPE svg PUBLIC "-//W3C//DTD SVG 1.1//EN" "http://www.w3.org/Graphics/SVG/1.1/DTD/svg11.dtd" >
<svg xmlns="http://www.w3.org/2000/svg">
<metadata></metadata>
<defs>
<font id="peace_sansregular" horiz-adv-x="1372" >
<font-face units-per-em="2048" ascent="1638" descent="-410" />
<missing-glyph horiz-adv-x="409" />
<glyph horiz-adv-x="0" />
<glyph horiz-adv-x="0" />
<glyph unicode="&#xd;" horiz-adv-x="0" />
<glyph unicode=" "  horiz-adv-x="409" />
<glyph unicode="&#x09;" horiz-adv-x="409" />
<glyph unicode="&#xa0;" horiz-adv-x="409" />
<glyph unicode="!" horiz-adv-x="778" d="M123 1516h532l-71 -984h-389zM174 0v410h430v-410h-430z" />
<glyph unicode="&#x22;" horiz-adv-x="983" d="M82 1516h369l-62 -594h-246zM532 1516h369l-61 -594h-246z" />
<glyph unicode="#" horiz-adv-x="1536" d="M20 287l41 286h246l41 287h-246l41 287h246l41 287h328l-41 -287h225l41 287h328l-41 -287h246l-41 -287h-246l-41 -287h246l-41 -286h-246l-41 -287h-328l41 287h-225l-41 -287h-328l41 287h-246zM635 573h225l41 287h-225z" />
<glyph unicode="$" horiz-adv-x="1280" d="M20 215l195 307q43 -39 96 -67q47 -25 110.5 -45.5t141.5 -20.5q39 0 60.5 19.5t21.5 42.5q0 27 -41 46t-102.5 42.5t-133 56.5t-133 86t-102.5 131t-41 191q0 63 17.5 115t45 95t63.5 77t73 59q88 59 201 94v174h266v-154q117 -12 204 -48t146 -77q70 -47 121 -100 l-195 -307q-37 31 -80 55q-37 23 -85 40t-101 17q-39 0 -60.5 -19t-21.5 -42q0 -27 41 -46t102.5 -43t133 -57.5t133 -86t102.5 -130t41 -190.5q0 -74 -20.5 -131t-54.5 -103t-78 -79t-89 -58q-106 -55 -239 -79v-164h-266v164q-123 16 -212.5 54t-146.5 79q-68 47 -113 102 z" />
<glyph unicode="%" horiz-adv-x="1617" d="M41 1126q0 70 25.5 129.5t69.5 103.5t103.5 69.5t129.5 25.5t129 -25.5t103 -69.5t69.5 -103.5t25.5 -129.5t-25.5 -129t-69.5 -103t-103 -69.5t-129 -25.5t-129.5 25.5t-103.5 69.5t-69.5 103.5t-25.5 128.5zM123 0l962 1434h410l-963 -1434h-409zM287 1126 q0 -47 25.5 -74.5t56.5 -27.5t56.5 27.5t25.5 74.5t-25.5 75t-56.5 28t-56.5 -27.5t-25.5 -75.5zM922 307q0 70 25.5 129.5t69.5 103.5t103.5 69.5t128.5 25.5q70 0 129.5 -25.5t103.5 -69.5t69.5 -103.5t25.5 -129.5t-25.5 -129t-69.5 -103t-103.5 -69.5t-129.5 -25.5 t-129 25.5t-103 69.5t-69.5 103.5t-25.5 128.5zM1167 307q0 -47 26 -74.5t56 -27.5q31 0 56.5 27.5t25.5 74.5t-25.5 75t-56.5 28t-56.5 -28t-25.5 -75z" />
<glyph unicode="&#x26;" horiz-adv-x="1464" d="M61 389q0 92 38 164t85 123q53 57 123 102q-35 35 -61 78q-23 37 -42.5 90t-19.5 119q0 84 33 158.5t93.5 130t145.5 88.5t189 33q96 0 177 -32t139.5 -86t91 -125t32.5 -147q0 -61 -30.5 -119.5t-67.5 -105.5q-43 -53 -96 -102l102 -92l195 235l276 -235l-194 -236 l194 -164l-245 -286l-195 174q-51 -53 -119 -93q-59 -35 -141 -63.5t-191 -28.5q-123 0 -218 33t-160.5 89t-99.5 133t-34 165zM492 440q0 -47 32.5 -79.5t79.5 -32.5q35 0 61.5 9t45.5 21q23 12 37 31l-195 164q-18 -14 -31 -33q-12 -16 -21 -36.5t-9 -43.5zM553 1044 q0 -23 14.5 -45t30.5 -38q20 -20 47 -39q25 18 45 39q16 16 31.5 38.5t15.5 44.5q0 47 -26.5 75t-65.5 28t-65.5 -28t-26.5 -75z" />
<glyph unicode="'" horiz-adv-x="532" d="M82 1516h369l-62 -594h-246z" />
<glyph unicode="(" horiz-adv-x="819" d="M123 573q0 100 18.5 189.5t48 168.5t68.5 147.5t80 123.5q94 129 215 232h266q-76 -117 -133 -254q-51 -117 -92 -273t-41 -334t41 -333.5t92 -272.5q57 -137 133 -254h-266q-121 98 -215 230q-41 55 -80 122.5t-68.5 147.5t-48 170t-18.5 190z" />
<glyph unicode=")" horiz-adv-x="819" d="M0 -287q74 117 133 254q49 117 91 272.5t42 333.5t-42 334t-91 273q-59 137 -133 254h266q119 -102 215 -232q39 -55 78 -123.5t69.5 -147.5t49 -168t18.5 -190q0 -100 -18.5 -190t-49 -170t-69.5 -147.5t-78 -122.5q-96 -131 -215 -230h-266z" />
<glyph unicode="*" horiz-adv-x="1003" d="M61 1014l93 266l215 -72l-11 226h287l-10 -226l215 72l92 -266l-215 -62l143 -184l-235 -174l-133 194l-133 -194l-236 174l143 184z" />
<glyph unicode="+" horiz-adv-x="1044" d="M61 471v389h267v287h389v-287h266v-389h-266v-287h-389v287h-267z" />
<glyph unicode="," horiz-adv-x="614" d="M0 -205l143 615h430l-245 -615h-328z" />
<glyph unicode="-" horiz-adv-x="1003" d="M61 471v389h881v-389h-881z" />
<glyph unicode="." horiz-adv-x="593" d="M82 0v410h430v-410h-430z" />
<glyph unicode="/" horiz-adv-x="1126" d="M41 -164l655 1761h389l-655 -1761h-389z" />
<glyph unicode="0" horiz-adv-x="1556" d="M82 717q0 166 54 303t148.5 235.5t221.5 153.5t272 55t272.5 -55t221.5 -153.5t148.5 -235.5t54.5 -303t-54.5 -303.5t-148.5 -235.5t-221.5 -153.5t-272.5 -55.5t-272 55.5t-221.5 153.5t-148.5 235.5t-54 303.5zM614 717q0 -154 51.5 -220.5t112.5 -66.5t112.5 66.5 t51.5 220.5t-51.5 220.5t-112.5 66.5t-112.5 -67t-51.5 -220z" />
<glyph unicode="1" horiz-adv-x="1003" d="M41 840v450l348 144h492v-1434h-533v942z" />
<glyph unicode="2" horiz-adv-x="1341" d="M82 1239q59 61 141 113q72 41 178.5 76.5t253.5 35.5q135 0 243 -39t183.5 -103.5t116.5 -147t41 -170.5q0 -66 -18.5 -124.5t-49 -109.5t-69.5 -95t-78 -79q-96 -82 -215 -145h410v-451h-1106v410q160 98 286 196q53 41 105.5 86t92.5 89t64.5 85t24.5 76 q0 47 -29.5 74.5t-83.5 27.5q-66 0 -119 -17t-94 -40q-47 -25 -84 -55z" />
<glyph unicode="3" horiz-adv-x="1300" d="M61 195l195 307q37 -33 84 -58q41 -23 94 -39t119 -16q53 0 83 26.5t30 65.5t-30 65.5t-83 26.5h-174v267l246 164h-471v430h1003v-430l-287 -185q96 -23 174 -74q33 -23 64 -52t55.5 -69t40 -90.5t15.5 -113.5q0 -84 -41 -165t-117 -144.5t-183.5 -102.5t-242.5 -39 q-147 0 -254 35t-178 78q-82 49 -142 113z" />
<glyph unicode="4" horiz-adv-x="1351" d="M61 225v389l512 820h615v-820h123v-389h-123v-225h-533v225h-594zM532 614h123v267z" />
<glyph unicode="5" horiz-adv-x="1259" d="M41 195l195 307q37 -33 79 -58q37 -23 85.5 -39t101.5 -16q70 0 106.5 35t36.5 88t-37 88t-106 35q-31 0 -60.5 -6t-52.5 -15q-27 -8 -51 -20l-246 164l103 676h921v-430h-532l-21 -103q18 4 41 10q18 4 45 7.5t58 3.5q106 0 197 -36t155.5 -99.5t101.5 -149.5t37 -186 q0 -96 -41 -183.5t-116.5 -154t-183 -105.5t-243.5 -39q-147 0 -253.5 35t-178.5 78q-82 49 -141 113z" />
<glyph unicode="6" d="M82 717q0 166 53 303t145.5 235.5t215 153.5t262.5 55q109 0 194.5 -21.5t147.5 -45.5q72 -29 129 -66l-144 -327q-31 16 -67 30q-31 10 -71 20.5t-87 10.5q-61 0 -110.5 -17.5t-84 -46t-53 -65.5t-18.5 -76q25 29 61 51q31 18 77 35t108 17q106 0 193 -34t148.5 -95.5 t95.5 -148.5t34 -193q0 -111 -41 -207.5t-116 -166t-180.5 -109.5t-236.5 -40q-145 0 -266 49.5t-207 144.5t-134 234.5t-48 319.5zM635 492q0 -70 31.5 -107t70.5 -37t71 37t32 107t-32 106.5t-71 36.5t-70.5 -37t-31.5 -106z" />
<glyph unicode="7" horiz-adv-x="1208" d="M82 983v451h1085v-430l-491 -1004h-553l481 983h-522z" />
<glyph unicode="8" horiz-adv-x="1413" d="M61 389q0 109 45.5 177.5t98.5 109.5q63 47 143 72v10q-57 23 -102 63q-39 35 -71 91.5t-32 142.5q0 76 38 149.5t109.5 132t176.5 93t240 34.5t239.5 -34.5t176 -93t109.5 -132.5t38 -149q0 -86 -32 -142.5t-71 -91.5q-45 -41 -102 -63v-10q80 -25 143 -72 q53 -41 98.5 -109.5t45.5 -177.5q0 -80 -39 -155.5t-119 -134t-201 -94.5t-286 -36q-166 0 -287 36t-201 94.5t-119 134t-39 155.5zM594 451q0 -53 32.5 -88t80.5 -35q47 0 79.5 34.5t32.5 88.5q0 53 -32.5 87.5t-79.5 34.5t-80 -34.5t-33 -87.5zM614 1034q0 -53 27 -82.5 t66 -29.5t65.5 29.5t26.5 82.5t-26.5 83t-65.5 30t-66 -30t-27 -83z" />
<glyph unicode="9" d="M61 942q0 111 41 207t116 165.5t180.5 109.5t236.5 40q145 0 266 -49t207 -144t134 -234.5t48 -319.5q0 -166 -54 -303.5t-146.5 -235.5t-215 -153.5t-260.5 -55.5q-109 0 -195.5 20.5t-148.5 45.5q-72 29 -127 67l144 328q29 -18 65 -31q31 -12 72 -21t88 -9 q61 0 110.5 17t84 46t53 65.5t18.5 75.5q-25 -29 -61 -51q-31 -20 -77 -35.5t-108 -15.5q-109 0 -195.5 33t-148 94t-94.5 148.5t-33 195.5zM532 942q0 -70 32 -106.5t71 -36.5t70.5 36.5t31.5 106.5t-31.5 106.5t-70.5 36.5t-71 -36.5t-32 -106.5z" />
<glyph unicode=":" horiz-adv-x="593" d="M82 0v410h430v-410h-430zM82 676v409h430v-409h-430z" />
<glyph unicode=";" horiz-adv-x="655" d="M0 -205l143 615h430l-245 -615h-328zM143 676v409h430v-409h-430z" />
<glyph unicode="&#x3c;" horiz-adv-x="1228" d="M82 369v348l1065 368v-348l-635 -194l635 -195v-348z" />
<glyph unicode="=" horiz-adv-x="1003" d="M61 225v348h881v-348h-881zM61 737v348h881v-348h-881z" />
<glyph unicode="&#x3e;" horiz-adv-x="1228" d="M82 0v348l635 195l-635 194v348l1065 -368v-348z" />
<glyph unicode="?" horiz-adv-x="1228" d="M41 1126q31 109 102 195q31 37 74 71.5t100.5 62.5t131 44.5t165.5 16.5q131 0 233.5 -36t173.5 -95.5t108.5 -137.5t37.5 -162q0 -68 -25.5 -120t-64.5 -96t-84 -82.5t-84 -78.5t-64.5 -82t-25.5 -94h-430q0 115 38 187t84 121t85 90t39 94q0 31 -25.5 56.5t-56.5 25.5 q-39 0 -62.5 -19.5t-37.5 -42.5q-16 -27 -23 -61zM389 0v410h430v-410h-430z" />
<glyph unicode="@" horiz-adv-x="1720" d="M82 553q0 154 61.5 291t167 241.5t246.5 165t303 60.5t303.5 -60.5t247 -165t166.5 -241.5t61 -291q0 -84 -28.5 -155.5t-76.5 -124t-110.5 -81t-132.5 -28.5t-117 21.5t-75 50.5q-35 31 -54 71q-20 -41 -57 -71q-33 -29 -86 -50.5t-133 -21.5q-57 0 -110.5 26.5 t-95.5 75.5t-66.5 122t-24.5 165t24.5 165t66.5 122t95.5 75.5t110.5 26.5q41 0 70.5 -12t48.5 -29q23 -18 35 -41l20 62h287v-390q0 -70 31.5 -106.5t70.5 -36.5t71 39t32 125q0 115 -44 216t-121 176t-181.5 118t-227.5 43t-228.5 -43t-182 -118t-119.5 -176t-43 -216 t43 -216t119.5 -176t182 -118t228.5 -43q70 0 129.5 12.5t104.5 28.5q53 18 94 41l82 -184q-49 -29 -113 -52q-53 -20 -129 -35.5t-168 -15.5q-162 0 -303 60.5t-246.5 165t-167 241.5t-61.5 291zM788 553q0 -78 27 -110.5t66 -32.5q12 0 28 4q8 2 13 6v266q-4 2 -13 4 q-6 2 -13 4t-15 2q-39 0 -66 -32.5t-27 -110.5z" />
<glyph unicode="A" horiz-adv-x="1576" d="M20 0l420 1434h697q0 -2 18.5 -64.5t48 -164t67.5 -230.5t77 -262q92 -315 208 -713h-593l-41 205h-267l-41 -205h-594zM717 532h143l-72 369z" />
<glyph unicode="B" horiz-adv-x="1495" d="M123 0v1434q84 4 182 10q84 4 192.5 7t229.5 3q172 0 295 -31.5t200.5 -87t113.5 -128t36 -152.5q0 -92 -42 -150.5t-91 -91.5q-59 -37 -133 -55v-10q92 -18 164 -64q61 -39 112.5 -109.5t51.5 -185.5q0 -84 -37 -158.5t-120 -130t-215 -88t-325 -32.5q-123 0 -233.5 3 t-196.5 7q-98 4 -184 10zM655 348h82q61 0 92 27.5t31 75.5q0 47 -30.5 74.5t-92.5 27.5h-82v-205zM655 901h72q53 0 83 26.5t30 65.5t-30 65.5t-83 26.5h-72v-184z" />
<glyph unicode="C" horiz-adv-x="1454" d="M82 717q0 158 58.5 294t159.5 237.5t239.5 158.5t300.5 57q147 0 253.5 -35.5t178.5 -76.5q82 -51 141 -113l-246 -389q-37 31 -80 55q-37 23 -85 40.5t-101 17.5q-109 0 -177.5 -69t-68.5 -177q0 -109 69 -177.5t177 -68.5q53 0 101.5 16.5t84.5 38.5q43 25 80 58 l246 -389q-59 -63 -141 -113q-72 -43 -178.5 -78t-253.5 -35q-162 0 -300.5 57.5t-239.5 159t-159.5 237.5t-58.5 294z" />
<glyph unicode="D" horiz-adv-x="1638" d="M123 0v1434q86 4 184 10q86 4 196.5 7t233.5 3q205 0 358.5 -53t256 -150.5t153.5 -232.5t51 -301t-51 -301t-153.5 -232.5t-256 -150.5t-358.5 -53q-123 0 -233.5 3t-196.5 7q-98 4 -184 10zM655 430h82q117 0 181.5 69.5t64.5 217.5q0 147 -64.5 217t-181.5 70h-82 v-574z" />
<glyph unicode="E" horiz-adv-x="1331" d="M123 0v1434h1106v-410h-574v-102h533v-410h-533v-102h615v-410h-1147z" />
<glyph unicode="F" horiz-adv-x="1228" d="M123 0v1434h1065v-451h-533v-164h430v-409h-430v-410h-532z" />
<glyph unicode="G" horiz-adv-x="1515" d="M82 717q0 158 58.5 294t159.5 237.5t239.5 158.5t300.5 57q147 0 253.5 -35.5t178.5 -76.5q82 -51 141 -113l-246 -389q-37 31 -80 55q-37 23 -85 40.5t-101 17.5q-109 0 -177.5 -69t-68.5 -177q0 -109 69 -177.5t177 -68.5h41v246h492v-502q-59 -70 -144 -123 q-74 -47 -185.5 -85t-264.5 -38q-162 0 -300.5 57.5t-239.5 159t-159.5 237.5t-58.5 294z" />
<glyph unicode="H" horiz-adv-x="1638" d="M123 0v1434h532v-492h328v492h533v-1434h-533v492h-328v-492h-532z" />
<glyph unicode="I" horiz-adv-x="778" d="M123 0v1434h532v-1434h-532z" />
<glyph unicode="J" horiz-adv-x="1105" d="M0 61l143 431q18 -12 41 -21q18 -8 45 -14t58 -6q70 0 117 49t47 135v799h532v-799q0 -162 -46 -291t-125 -219t-183.5 -138t-218.5 -48q-100 0 -176 19t-130 42q-61 27 -104 61z" />
<glyph unicode="K" horiz-adv-x="1536" d="M123 0v1434h532v-574l246 574h615l-390 -717l430 -717h-614l-287 573v-573h-532z" />
<glyph unicode="L" horiz-adv-x="1249" d="M123 0v1434h532v-963h553v-471h-1085z" />
<glyph unicode="M" horiz-adv-x="2232" d="M123 0v1434h758l235 -779l236 779h757v-1434h-532v799l-246 -799h-430l-246 799v-799h-532z" />
<glyph unicode="N" horiz-adv-x="1720" d="M123 0v1434h594l348 -635v635h532v-1434h-593l-349 635v-635h-532z" />
<glyph unicode="O" horiz-adv-x="1761" d="M82 717q0 158 58.5 294t164 237.5t253 158.5t323.5 57t323.5 -57t253 -158.5t163.5 -237.5t58 -294t-58 -294t-163.5 -237.5t-253 -159t-323.5 -57.5t-323.5 57.5t-253 159t-164 237.5t-58.5 294zM655 717q0 -53 17.5 -98.5t48.5 -78t72 -51t88 -18.5q45 0 86 18.5 t71.5 51t49 78t18.5 98.5t-18.5 98t-49 78t-71.5 51.5t-86 18.5q-47 0 -88 -18.5t-72 -51.5t-48.5 -78t-17.5 -98z" />
<glyph unicode="P" horiz-adv-x="1454" d="M123 0v1434q86 4 184 10q86 4 196.5 7t233.5 3q168 0 292 -37t205 -102.5t120 -158.5t39 -204t-38 -204t-108.5 -158.5t-173 -102t-233.5 -36.5q-31 0 -64 1t-59 3q-33 2 -62 6v-461h-532zM655 840h82q53 0 88 32.5t35 79.5t-34.5 80t-88.5 33h-82v-225z" />
<glyph unicode="Q" horiz-adv-x="1761" d="M82 717q0 158 58.5 294t164 237.5t253 158.5t323.5 57t323.5 -57t253 -158.5t163.5 -237.5t58 -294q0 -90 -17 -166t-45 -139.5t-64.5 -113.5t-73.5 -89q-88 -92 -199 -148q16 -35 43 -61q23 -23 60.5 -42t91.5 -19q47 0 84 10q20 4 38 10v-369q-25 -6 -53 -10 q-25 -4 -58.5 -7t-72.5 -3q-80 0 -149.5 17.5t-129 46t-107.5 65.5t-87 76q-90 90 -152 205q-150 8 -278.5 66t-224 156.5t-149.5 229.5t-54 285zM655 717q0 -53 17.5 -98.5t48.5 -78t72 -51t88 -18.5q45 0 86 18.5t71.5 51t49 78t18.5 98.5t-18.5 98t-49 78t-71.5 51.5 t-86 18.5q-47 0 -88 -18.5t-72 -51.5t-48.5 -78t-17.5 -98z" />
<glyph unicode="R" horiz-adv-x="1495" d="M123 0v1434q84 4 182 10q84 4 189.5 7t222.5 3q168 0 292 -37t204.5 -102.5t119.5 -158.5t39 -204q0 -113 -28.5 -188.5t-63.5 -122.5q-41 -55 -92 -88l348 -553h-614l-246 471h-21v-471h-532zM655 840h62q53 0 88 32.5t35 79.5t-35 80t-88 33h-62v-225z" />
<glyph unicode="S" horiz-adv-x="1280" d="M20 215l195 307q43 -39 96 -67q47 -25 110.5 -45.5t141.5 -20.5q39 0 60.5 19.5t21.5 42.5q0 27 -41 46t-102.5 42.5t-133 56.5t-133 86t-102.5 131t-41 191q0 88 41 170.5t117 147t183.5 103.5t242.5 39q139 0 241.5 -35.5t172.5 -76.5q82 -51 139 -113l-195 -307 q-37 31 -80 55q-37 23 -85 40t-101 17q-39 0 -60.5 -19t-21.5 -42q0 -27 41 -46t102.5 -43t133 -57.5t133 -86t102.5 -130t41 -190.5q0 -88 -41 -171t-116.5 -147.5t-183 -103.5t-243.5 -39q-170 0 -289.5 38t-197.5 85q-90 53 -148 123z" />
<glyph unicode="T" horiz-adv-x="1392" d="M41 963v471h1311v-471h-389v-963h-533v963h-389z" />
<glyph unicode="U" horiz-adv-x="1638" d="M123 666v768h532v-768q0 -86 47 -135.5t117 -49.5t117 49.5t47 135.5v768h533v-768q0 -154 -51.5 -282t-143.5 -220t-220 -143.5t-282 -51.5t-281.5 51.5t-220 143.5t-143.5 220t-51 282z" />
<glyph unicode="V" horiz-adv-x="1536" d="M20 1434h594l154 -840l154 840h594l-400 -1434h-696z" />
<glyph unicode="W" horiz-adv-x="2150" d="M20 1434h553l113 -789l154 789h471l153 -789l113 789h553l-307 -1434h-594l-154 727l-153 -727h-594z" />
<glyph unicode="X" horiz-adv-x="1515" d="M-20 0l409 717l-389 717h614l144 -390l143 390h615l-390 -717l410 -717h-614l-164 430l-164 -430h-614z" />
<glyph unicode="Y" horiz-adv-x="1433" d="M-41 1434h614l144 -410l143 410h615l-492 -881v-553h-532v553z" />
<glyph unicode="Z" horiz-adv-x="1413" d="M102 0v8v443l512 532h-471v451h1147v-451l-512 -532h533v-451h-1209z" />
<glyph unicode="[" horiz-adv-x="839" d="M164 -287v1721h614v-328h-225v-1065h225v-328h-614z" />
<glyph unicode="\" horiz-adv-x="1126" d="M41 1597h389l655 -1761h-389z" />
<glyph unicode="]" horiz-adv-x="839" d="M61 41h226v1065h-226v328h615v-1721h-615v328z" />
<glyph unicode="^" horiz-adv-x="1105" d="M0 717l389 717h328l389 -717h-389l-164 307l-164 -307h-389z" />
<glyph unicode="_" horiz-adv-x="880" d="M-41 -246h963v-307h-963v307z" />
<glyph unicode="`" horiz-adv-x="737" d="M61 1434h431l184 -430h-328z" />
<glyph unicode="a" horiz-adv-x="1269" d="M41 307q0 74 27.5 135.5t87 106.5t152.5 70.5t224 25.5h164q-8 31 -30 55q-20 23 -56.5 40.5t-97.5 17.5q-39 0 -72.5 -12.5t-58.5 -28.5q-29 -18 -53 -41l-174 276q45 45 110 82q55 31 135.5 56.5t184.5 25.5q131 0 241.5 -45t191.5 -123t126 -182t45 -223v-543h-471 l-41 123q-27 -43 -64 -78q-33 -29 -83 -52.5t-119 -23.5q-84 0 -153 25.5t-117 71t-73.5 106.5t-25.5 135zM532 358q0 -23 19.5 -42t42.5 -19q39 0 70.5 41t31.5 133q-86 0 -125 -32.5t-39 -80.5z" />
<glyph unicode="b" d="M102 0v1516h492v-553q25 41 65 75q35 29 89.5 53.5t132.5 24.5q84 0 161.5 -38t137 -110.5t95.5 -180t36 -244.5q0 -139 -36 -246t-95.5 -179.5t-137 -110.5t-161.5 -38q-78 0 -132.5 23.5t-89.5 52.5q-41 35 -65 78l-41 -123h-451zM573 543q0 -78 33 -116t80 -38t80 38 t33 116t-33 115.5t-80 37.5t-80 -37.5t-33 -115.5z" />
<glyph unicode="c" horiz-adv-x="1146" d="M61 543q0 119 45.5 223t126 182t191.5 123t242 45q111 0 196.5 -27.5t145.5 -60.5q68 -37 118 -86l-204 -328q-25 23 -54 41q-25 16 -58.5 28.5t-72.5 12.5q-78 0 -121 -41.5t-43 -111.5t43 -112t121 -42q39 0 73 12.5t58 28.5q29 18 54 41l204 -328q-51 -51 -118 -88 q-59 -33 -145.5 -59.5t-196.5 -26.5q-131 0 -242 45t-191.5 123t-126 182.5t-45.5 223.5z" />
<glyph unicode="d" d="M61 543q0 137 36 244.5t95.5 180t137.5 110.5t162 38q78 0 131 -24.5t88 -53.5q39 -35 67 -75v553h492v-1516h-451l-41 123q-29 -43 -67 -78q-35 -29 -88.5 -52.5t-130.5 -23.5q-84 0 -162 38t-137.5 110.5t-95.5 179.5t-36 246zM573 543q0 -78 33 -116t80 -38t80 38 t33 116t-33 115.5t-80 37.5t-80 -37.5t-33 -115.5z" />
<glyph unicode="e" horiz-adv-x="1249" d="M61 543q0 119 45.5 223t123 182t182 123t223.5 45t223.5 -45t182 -123t122.5 -182t45 -223v-103h-655q8 -33 31 -57q18 -23 55 -39t98 -16q39 0 73 12t58 29q29 18 54 41l174 -277q-45 -45 -111 -82q-55 -31 -135 -56.5t-184 -25.5q-131 0 -242 45t-191.5 123t-126 182.5 t-45.5 223.5zM543 635h184q0 61 -26.5 92t-65.5 31t-65.5 -31t-26.5 -92z" />
<glyph unicode="f" horiz-adv-x="921" d="M41 614v410h143v31q0 270 130 406t362 136q39 0 72.5 -3t58.5 -7q29 -6 53 -10v-410q-14 2 -26 4t-25.5 4.5t-30.5 2.5q-47 0 -74.5 -31t-27.5 -92v-31h184v-410h-184v-614h-492v614h-143z" />
<glyph unicode="g" d="M61 563q0 131 36 233.5t95.5 173t137.5 108.5t162 38q78 0 131 -24.5t88 -53.5q39 -35 67 -75l41 122h451v-1044q0 -127 -49.5 -238.5t-133 -195.5t-197.5 -132t-245 -48q-113 0 -198 26.5t-144 59.5q-68 37 -119 88l205 327q25 -23 53 -41q25 -16 59 -28.5t72 -12.5 q92 0 148.5 54.5t56.5 140.5v123q-29 -43 -67 -78q-35 -29 -88.5 -52.5t-130.5 -23.5q-84 0 -162 38t-137.5 108.5t-95.5 173t-36 233.5zM573 563q0 -61 33 -97t80 -36t80 36t33 97t-33 97t-80 36t-80 -36t-33 -97z" />
<glyph unicode="h" horiz-adv-x="1331" d="M102 0v1516h492v-574q31 49 74 86q37 33 90 60.5t123 27.5q76 0 143.5 -31.5t117.5 -97t78.5 -169t28.5 -245.5v-573h-491v573q0 61 -25.5 92t-56.5 31t-56.5 -30.5t-25.5 -92.5v-573h-492z" />
<glyph unicode="i" horiz-adv-x="696" d="M102 0v1085h492v-1085h-492zM102 1208v389h492v-389h-492z" />
<glyph unicode="j" horiz-adv-x="696" d="M-82 -164q10 -4 25 -6q10 -2 25.5 -3t31.5 -1q47 0 74.5 30.5t27.5 92.5v1136h492v-1136q0 -270 -130 -406.5t-362 -136.5q-39 0 -72.5 3t-58.5 7q-29 4 -53 11v409zM102 1208v389h492v-389h-492z" />
<glyph unicode="k" horiz-adv-x="1320" d="M102 0v1516h492v-840l174 409h532l-286 -532l327 -553h-542l-205 430v-430h-492z" />
<glyph unicode="l" horiz-adv-x="696" d="M102 0v1516h492v-1516h-492z" />
<glyph unicode="m" horiz-adv-x="1986" d="M102 0v1085h471l41 -122q25 41 66 75q35 29 89 53.5t132 24.5t134.5 -30.5t94.5 -67.5q45 -43 78 -96q35 53 86 96q41 37 102.5 67.5t139.5 30.5q76 0 143.5 -31.5t117.5 -97t79 -169t29 -245.5v-573h-492v573q0 61 -25.5 92t-56.5 31t-56.5 -30.5t-25.5 -92.5v-573h-491 v573q0 61 -25.5 92t-56.5 31t-56.5 -30.5t-25.5 -92.5v-573h-492z" />
<glyph unicode="n" horiz-adv-x="1331" d="M102 0v1085h471l41 -122q27 41 64 75q33 29 83 53.5t120 24.5q76 0 143.5 -31.5t117.5 -97t78.5 -169t28.5 -245.5v-573h-491v573q0 61 -25.5 92t-56.5 31t-56.5 -30.5t-25.5 -92.5v-573h-492z" />
<glyph unicode="o" d="M61 543q0 119 46.5 223t128 182t196.5 123t254 45q137 0 253 -45t198 -123t128 -182t46 -223t-46 -223.5t-128 -182.5t-198 -123t-253 -45q-139 0 -254 45t-196.5 123t-128 182.5t-46.5 223.5zM553 543q0 -70 40 -112t93 -42t93 42t40 112t-40 111.5t-93 41.5t-93 -42 t-40 -111z" />
<glyph unicode="p" d="M102 -512v1597h451l41 -122q25 41 65 75q35 29 89.5 53.5t132.5 24.5q84 0 161.5 -38t137 -110.5t95.5 -180t36 -244.5q0 -139 -36 -246t-95.5 -179.5t-137 -110.5t-161.5 -38q-78 0 -132.5 23.5t-89.5 52.5q-41 35 -65 78v-635h-492zM573 543q0 -78 33 -116t80 -38 t80 38t33 116t-33 115.5t-80 37.5t-80 -37.5t-33 -115.5z" />
<glyph unicode="q" d="M61 543q0 137 36 244.5t95.5 180t137.5 110.5t162 38q78 0 131 -24.5t88 -53.5q39 -35 67 -75l41 122h451v-1597h-492v635q-29 -43 -67 -78q-35 -29 -88.5 -52.5t-130.5 -23.5q-84 0 -162 38t-137.5 110.5t-95.5 179.5t-36 246zM573 543q0 -78 33 -116t80 -38t80 38 t33 116t-33 115.5t-80 37.5t-80 -37.5t-33 -115.5z" />
<glyph unicode="r" horiz-adv-x="983" d="M102 0v1085h471l41 -122q25 41 62 75q31 29 77 53.5t107 24.5q31 0 56.5 -5t46.5 -11q23 -8 41 -15l-82 -450q-25 12 -50 20q-23 8 -47 14.5t-47 6.5q-78 0 -131 -58.5t-53 -166.5v-451h-492z" />
<glyph unicode="s" horiz-adv-x="1054" d="M20 164l154 246q31 -29 70 -52q35 -20 81 -35.5t105 -15.5q23 0 37 12.5t14 28.5q0 14 -29.5 28.5t-73.5 33t-96.5 44t-96.5 65.5t-73.5 98.5t-29.5 140.5q0 74 30.5 138.5t91 113.5t150.5 77.5t209 28.5q104 0 187.5 -27.5t142.5 -60.5q68 -37 121 -86l-154 -246 q-25 23 -55 41q-27 16 -62.5 28.5t-76.5 12.5q-23 0 -37.5 -12t-14.5 -29q0 -16 30 -29.5t74 -32t96 -44t96 -65.5t74 -98t30 -140q0 -74 -31 -138.5t-91.5 -113.5t-150.5 -78t-209 -29q-129 0 -223 30t-159 67q-76 43 -130 98z" />
<glyph unicode="t" horiz-adv-x="962" d="M41 676v409h143v349h492v-349h184v-409h-184v-174q0 -61 27.5 -92t74.5 -31q16 0 29.5 1t26.5 3q12 2 26 6v-409q-25 -6 -53 -11q-25 -4 -58.5 -7t-72.5 -3q-231 0 -361.5 136t-130.5 407v174h-143z" />
<glyph unicode="u" horiz-adv-x="1351" d="M102 512v573h492v-573q0 -61 25.5 -92t56.5 -31t56.5 31t25.5 92v573h491v-1085h-471l-41 123q-27 -43 -63 -78q-33 -29 -83 -52.5t-120 -23.5q-78 0 -144.5 32t-116.5 97.5t-79 169t-29 244.5z" />
<glyph unicode="v" horiz-adv-x="1208" d="M0 1085h512l92 -573l92 573h512l-317 -1085h-574z" />
<glyph unicode="w" horiz-adv-x="1720" d="M0 1085h512l61 -532l93 532h389l92 -532l61 532h512l-245 -1085h-492l-123 553l-123 -553h-491z" />
<glyph unicode="x" horiz-adv-x="1228" d="M-20 0l307 543l-277 542h522l82 -266l82 266h523l-277 -542l307 -543h-553l-82 266l-82 -266h-552z" />
<glyph unicode="y" horiz-adv-x="1208" d="M0 1085h512l92 -573l92 573h512l-389 -1167q-47 -139 -98 -236.5t-113.5 -159t-138.5 -89t-172 -27.5q-53 0 -101.5 12.5t-84.5 28.5q-43 18 -80 41l112 358q10 -6 21 -10q20 -10 51 -10q39 0 68.5 26.5t44.5 65.5l30 82z" />
<glyph unicode="z" horiz-adv-x="1146" d="M82 0v389l369 307h-349v389h942v-389l-368 -307h389v-389h-983z" />
<glyph unicode="{" horiz-adv-x="839" d="M82 453v241q123 2 123 125v307q0 139 84 223.5t223 84.5h246v-328h-103q-61 0 -61 -62v-225q0 -78 -25.5 -126t-56.5 -75q-37 -33 -82 -45q45 -16 82 -47q31 -29 56.5 -74.5t25.5 -123.5v-226q0 -61 61 -61h103v-328h-246q-139 0 -223 84t-84 223v308q0 121 -123 125z " />
<glyph unicode="|" horiz-adv-x="675" d="M164 -102v1638h348v-1638h-348z" />
<glyph unicode="}" horiz-adv-x="839" d="M82 41h102q61 0 62 61v226q0 78 25.5 124t56.5 74q37 31 82 47q-45 12 -82 45q-31 27 -56.5 75t-25.5 126v225q0 61 -62 62h-102v328h246q139 0 223 -84t84 -224v-307q0 -123 123 -125v-241q-123 -4 -123 -125v-308q0 -139 -84 -223t-223 -84h-246v328z" />
<glyph unicode="~" horiz-adv-x="1024" d="M61 430v205q0 139 72 213t195 74q53 0 96 -19.5t80 -42t68.5 -42t62.5 -19.5q47 0 74.5 27.5t27.5 74.5h226v-205q0 -139 -72 -212.5t-195 -73.5q-53 0 -96 19.5t-80 42t-68.5 41.5t-62.5 19q-47 0 -74.5 -27.5t-27.5 -74.5h-226z" />
<glyph unicode="&#xa2;" horiz-adv-x="1146" d="M61 717q0 82 18.5 149.5t48.5 121.5t69 97t79 74q94 74 216 111v164h286v-154q86 -12 149.5 -39t108.5 -55q53 -33 90 -70l-204 -328q-25 23 -54 41q-25 16 -58.5 28.5t-72.5 12.5q-78 0 -121 -42t-43 -111q0 -70 43 -112t121 -42q39 0 73 12.5t58 28.5q29 18 54 41 l204 -328q-37 -37 -90 -69q-45 -29 -108.5 -56.5t-149.5 -37.5v-154h-286v164q-121 37 -216 110q-41 31 -79.5 73t-68.5 96.5t-48.5 122t-18.5 151.5z" />
<glyph unicode="&#xa3;" horiz-adv-x="1351" d="M102 0v410q39 12 72 32q27 16 49.5 44t22.5 67h-103v287h103v102q0 119 36.5 215t105.5 165t165 105.5t215 36.5q223 0 352 -133t129 -389h-358q0 47 -25.5 74.5t-56.5 27.5t-56.5 -27.5t-25.5 -74.5v-102h256v-287h-266q0 -39 -16.5 -66.5t-34.5 -44.5q-23 -20 -52 -32 h635v-410h-1147z" />
<glyph unicode="&#xa5;" horiz-adv-x="1474" d="M-20 1434h614l143 -410l144 410h614l-410 -717h185v-225h-266v-82h266v-226h-266v-184h-533v184h-266v226h266v82h-266v225h184z" />
<glyph unicode="&#xa8;" horiz-adv-x="942" d="M61 1249q0 78 53.5 131.5t131.5 53.5t131 -53.5t53 -131.5t-53 -131t-131 -53t-131.5 53t-53.5 131zM512 1249q0 78 53 131.5t131 53.5t131.5 -53.5t53.5 -131.5t-53.5 -131t-131.5 -53t-131 53t-53 131z" />
<glyph unicode="&#xa9;" horiz-adv-x="1720" d="M82 717q0 154 61.5 291t167 241.5t246.5 165t303 60.5t303.5 -60.5t247 -165t166.5 -242t61 -290.5q0 -154 -61 -291t-166.5 -241.5t-247 -165t-303.5 -60.5t-303 60.5t-246.5 165t-167 241.5t-61.5 291zM287 717q0 -115 43 -216.5t119.5 -176t182 -117.5t228.5 -43 t227.5 43t181.5 117.5t121 176t44 216.5t-44 216t-121 176t-181.5 118t-227.5 43t-228.5 -43t-182 -118t-119.5 -176.5t-43 -215.5zM512 717q0 84 28.5 155.5t81 124t124 81t155.5 28.5q70 0 126 -17.5t97 -39.5q47 -25 84 -56l-123 -205q-16 14 -38 25q-18 10 -43 18.5 t-52 8.5q-61 0 -97 -35t-36 -88t36 -88t97 -35q27 0 51.5 7t43.5 17q23 10 38 27l123 -205q-37 -33 -84 -57q-41 -23 -97 -39t-126 -16q-84 0 -155.5 28.5t-124 80.5t-81 124t-28.5 156z" />
<glyph unicode="&#xab;" horiz-adv-x="1105" d="M61 553l226 471h307l-225 -471l225 -471h-307zM512 553l225 471h307l-225 -471l225 -471h-307z" />
<glyph unicode="&#xad;" horiz-adv-x="1003" d="M61 471v389h881v-389h-881z" />
<glyph unicode="&#xae;" horiz-adv-x="1720" d="M82 717q0 154 61.5 291t167 241.5t246.5 165t303 60.5t303.5 -60.5t247 -165t166.5 -242t61 -290.5q0 -154 -61 -291t-166.5 -241.5t-247 -165t-303.5 -60.5t-303 60.5t-246.5 165t-167 241.5t-61.5 291zM287 717q0 -115 43 -216.5t119.5 -176t182 -117.5t228.5 -43 t227.5 43t181.5 117.5t121 176t44 216.5t-44 216t-121 176t-181.5 118t-227.5 43t-228.5 -43t-182 -118t-119.5 -176.5t-43 -215.5zM532 348v737l103 11q47 4 105.5 7t119.5 3q92 0 161 -21.5t115 -58.5t69.5 -85t23.5 -101q0 -47 -16.5 -82t-34.5 -58q-23 -27 -52 -45 l144 -307h-348l-72 225h-10v-225h-308zM840 778h20q23 0 42.5 19.5t19.5 42.5t-19.5 42t-42.5 19h-20v-123z" />
<glyph unicode="&#xb4;" horiz-adv-x="737" d="M61 1004l185 430h430l-287 -430h-328z" />
<glyph unicode="&#xb8;" horiz-adv-x="593" d="M61 -430h144q23 0 42 19.5t19 41.5q0 23 -19.5 42.5t-41.5 19.5h-123l123 307h133l-51 -123q49 0 94 -19.5t79 -53t53 -78.5t19 -95q0 -117 -77.5 -191.5t-208.5 -74.5h-185v205z" />
<glyph unicode="&#xbb;" horiz-adv-x="1105" d="M61 82l226 471l-226 471h308l225 -471l-225 -471h-308zM512 82l225 471l-225 471h307l225 -471l-225 -471h-307z" />
<glyph unicode="&#x2c6;" horiz-adv-x="942" d="M61 1085l246 349h328l246 -349h-308l-102 164l-102 -164h-308z" />
<glyph unicode="&#x2da;" horiz-adv-x="655" d="M61 1167q0 117 75 192t192 75t191.5 -75t74.5 -192t-75 -191.5t-191 -74.5q-117 0 -192 74.5t-75 191.5zM246 1167q0 -31 25.5 -56.5t56.5 -25.5t56.5 26t25.5 56q0 31 -26 56.5t-56 25.5q-31 0 -56.5 -25.5t-25.5 -56.5z" />
<glyph unicode="&#x2dc;" horiz-adv-x="778" d="M61 1085v144q0 92 53.5 148.5t131.5 56.5q45 0 78.5 -16.5t60.5 -35t47.5 -35t38.5 -16.5q23 0 42 21.5t19 60.5h185v-143q0 -92 -53.5 -148.5t-131.5 -56.5q-47 0 -79.5 16.5t-59 35t-47 34.5t-39.5 16q-23 0 -42 -21.5t-19 -60.5h-185z" />
<glyph unicode="&#x401;" horiz-adv-x="1331" d="M123 0v1434h1106v-410h-574v-102h533v-410h-533v-102h615v-410h-1147zM266 1741q0 78 53.5 131t131.5 53t131 -53t53 -131t-53.5 -131.5t-130.5 -53.5q-78 0 -131.5 53.5t-53.5 131.5zM717 1741q0 78 53 131t131 53t131 -53t53 -131t-53 -131.5t-131 -53.5t-131 53.5 t-53 131.5z" />
<glyph unicode="&#x402;" horiz-adv-x="1638" d="M0 963v471h1188v-471h-328v-246q31 45 76 82q39 31 96.5 56.5t134.5 25.5q184 0 297 -124t113 -378q0 -223 -130 -352t-362 -129q-61 0 -112 10q-27 4 -51 10v358h20q47 0 74.5 29t27.5 74q0 39 -26.5 65.5t-65.5 26.5t-65.5 -27.5t-26.5 -74.5v-369h-532v963h-328z" />
<glyph unicode="&#x403;" horiz-adv-x="1228" d="M123 0v1434h1085v-471h-553v-963h-532zM491 1577l185 430h430l-287 -430h-328z" />
<glyph unicode="&#x404;" horiz-adv-x="1454" d="M82 717q0 158 58.5 294t159.5 237.5t239.5 158.5t300.5 57q147 0 253.5 -35.5t178.5 -76.5q82 -51 141 -113l-225 -348q-37 31 -80 55q-37 23 -85 40.5t-101 17.5q-70 0 -115 -19.5t-72 -42.5q-33 -27 -49 -61h338v-328h-338q16 -35 49 -61q27 -23 72 -42.5t115 -19.5 q53 0 101 16.5t85 38.5q43 25 80 58l225 -348q-59 -63 -141 -113q-72 -43 -178.5 -78t-253.5 -35q-162 0 -300.5 57.5t-239.5 159t-159.5 237.5t-58.5 294z" />
<glyph unicode="&#x405;" horiz-adv-x="1280" d="M20 215l195 307q43 -39 96 -67q47 -25 110.5 -45.5t141.5 -20.5q39 0 60.5 19.5t21.5 42.5q0 27 -41 46t-102.5 42.5t-133 56.5t-133 86t-102.5 131t-41 191q0 88 41 170.5t117 147t183.5 103.5t242.5 39q139 0 241.5 -35.5t172.5 -76.5q82 -51 139 -113l-195 -307 q-37 31 -80 55q-37 23 -85 40t-101 17q-39 0 -60.5 -19t-21.5 -42q0 -27 41 -46t102.5 -43t133 -57.5t133 -86t102.5 -130t41 -190.5q0 -88 -41 -171t-116.5 -147.5t-183 -103.5t-243.5 -39q-170 0 -289.5 38t-197.5 85q-90 53 -148 123z" />
<glyph unicode="&#x406;" horiz-adv-x="778" d="M123 0v1434h532v-1434h-532z" />
<glyph unicode="&#x407;" horiz-adv-x="778" d="M-19 1761q0 78 53.5 131.5t131.5 53.5t131 -53.5t53 -131.5t-53 -131t-131 -53t-131.5 53t-53.5 131zM123 0v1434h532v-1434h-532zM432 1761q0 78 53 131.5t131 53.5t131.5 -53.5t53.5 -131.5t-53.5 -131t-131.5 -53t-131 53t-53 131z" />
<glyph unicode="&#x408;" horiz-adv-x="1105" d="M0 61l143 431q18 -12 41 -21q18 -8 45 -14t58 -6q70 0 117 49t47 135v799h532v-799q0 -162 -46 -291t-125 -219t-183.5 -138t-218.5 -48q-100 0 -176 19t-130 42q-61 27 -104 61z" />
<glyph unicode="&#x409;" horiz-adv-x="2314" d="M0 0v389h41q35 0 68.5 13.5t63.5 52.5t54.5 110.5t42 187t27.5 282.5t10 399h1209v-420q29 2 61 4q27 2 59.5 4t63.5 2q131 0 233.5 -37t173 -105.5t108.5 -164.5t38 -215t-39 -215.5t-120 -165t-205 -105t-292 -36.5q-123 0 -233.5 3t-196.5 7q-98 4 -184 10v1004h-184 q0 -289 -47 -487t-127 -319.5t-188.5 -175t-231.5 -53.5q-39 0 -76 4t-66 11q-35 8 -63 16zM1516 369h81q53 0 88 35.5t35 97.5q0 61 -34.5 97t-88.5 36h-81v-266z" />
<glyph unicode="&#x40a;" horiz-adv-x="2314" d="M123 0v1434h532v-471h328v471h533v-461q29 2 61 4q27 2 59.5 4t63.5 2q131 0 233.5 -37t173 -102.5t108.5 -158.5t38 -204t-39 -204t-120 -158.5t-205 -102t-292 -36.5q-123 0 -233.5 3t-196.5 7q-98 4 -184 10v532h-328v-532h-532zM1516 369h81q53 0 88 32.5t35 79.5 t-34.5 80t-88.5 33h-81v-225z" />
<glyph unicode="&#x40b;" horiz-adv-x="1658" d="M0 963v471h1188v-471h-328v-246q31 45 76 82q39 31 96.5 56.5t134.5 25.5q184 0 297 -126t113 -386v-369h-533v369q0 47 -26.5 74.5t-65.5 27.5t-65.5 -27.5t-26.5 -74.5v-369h-532v963h-328z" />
<glyph unicode="&#x40c;" horiz-adv-x="1536" d="M123 0v1434h532v-574l246 574h615l-390 -717l430 -717h-614l-287 573v-573h-532zM614 1577l185 430h430l-287 -430h-328z" />
<glyph unicode="&#x40e;" horiz-adv-x="1454" d="M20 1434h615l133 -471l113 471h614l-440 -942q-123 -262 -262.5 -392.5t-331.5 -130.5q-78 0 -141.5 16.5t-110.5 39.5q-53 25 -96 57l123 389q25 -12 51 -20q23 -8 52.5 -14.5t59.5 -6.5q23 0 38.5 9.5t25.5 21.5t18 31zM368 1966h308q0 -82 82 -82t81 82h308 q0 -178 -105.5 -284t-283.5 -106t-284 105.5t-106 284.5z" />
<glyph unicode="&#x40f;" horiz-adv-x="1638" d="M123 0v1434h532v-983h328v983h533v-1434h-431v-266h-532v266h-430z" />
<glyph unicode="&#x410;" horiz-adv-x="1576" d="M20 0l420 1434h697q0 -2 18.5 -64.5t48 -164t67.5 -230.5t77 -262q92 -315 208 -713h-593l-41 205h-267l-41 -205h-594zM717 532h143l-72 369z" />
<glyph unicode="&#x411;" horiz-adv-x="1474" d="M123 0v1434h1126v-390h-594v-133q29 2 66 4q31 2 72 4.5t88 2.5q131 0 233.5 -36t173 -99.5t108.5 -149.5t38 -186t-39 -186.5t-120 -150t-205 -99t-292 -35.5q-131 0 -248.5 3t-210.5 7q-106 4 -196 10zM655 348h123q53 0 88 32t35 71t-35 70.5t-88 31.5h-123v-205z" />
<glyph unicode="&#x412;" horiz-adv-x="1495" d="M123 0v1434q84 4 182 10q84 4 192.5 7t229.5 3q172 0 295 -31.5t200.5 -87t113.5 -128t36 -152.5q0 -92 -42 -150.5t-91 -91.5q-59 -37 -133 -55v-10q92 -18 164 -64q61 -39 112.5 -109.5t51.5 -185.5q0 -84 -37 -158.5t-120 -130t-215 -88t-325 -32.5q-123 0 -233.5 3 t-196.5 7q-98 4 -184 10zM655 348h82q61 0 92 27.5t31 75.5q0 47 -30.5 74.5t-92.5 27.5h-82v-205zM655 901h72q53 0 83 26.5t30 65.5t-30 65.5t-83 26.5h-72v-184z" />
<glyph unicode="&#x413;" horiz-adv-x="1228" d="M123 0v1434h1085v-471h-553v-963h-532z" />
<glyph unicode="&#x414;" horiz-adv-x="1658" d="M0 -266v696h123q39 63 72 195q27 111 49 306t22 503h1209v-1004h163v-696h-532v266h-574v-266h-532zM655 430h287v574h-205q0 -147 -12 -254t-29 -179q-18 -82 -41 -141z" />
<glyph unicode="&#x415;" horiz-adv-x="1331" d="M123 0v1434h1106v-410h-574v-102h533v-410h-533v-102h615v-410h-1147z" />
<glyph unicode="&#x416;" horiz-adv-x="2293" d="M-20 0l430 717l-390 717h615l246 -574v574h532v-574l246 574h614l-389 -717l430 -717h-614l-287 573v-573h-532v573l-287 -573h-614z" />
<glyph unicode="&#x417;" horiz-adv-x="1300" d="M20 215l195 307q43 -39 96 -67q47 -25 110.5 -45.5t141.5 -20.5q47 0 75 25.5t28 56.5t-28 56.5t-73 25.5h-186v348h215q47 0 69.5 20.5t22.5 51.5t-22.5 51t-69.5 20q-66 0 -123 -17t-100 -40q-51 -25 -95 -55l-194 307q55 61 137 113q70 41 173.5 76.5t242.5 35.5 q141 0 250.5 -34.5t183.5 -93t112 -132.5t38 -149q0 -92 -42 -150.5t-92 -91.5q-59 -37 -133 -55v-10q80 -18 144 -64q53 -39 98 -108.5t45 -186.5q0 -80 -38 -155.5t-111.5 -134t-183 -94.5t-251.5 -36q-170 0 -289.5 38t-197.5 85q-90 53 -148 123z" />
<glyph unicode="&#x418;" horiz-adv-x="1679" d="M123 0v1434h532v-697l328 697h573v-1434h-532v696l-328 -696h-573z" />
<glyph unicode="&#x419;" horiz-adv-x="1679" d="M123 0v1434h532v-697l328 697h573v-1434h-532v696l-328 -696h-573zM430 1987h307q0 -47 28 -75t75 -28t74.5 27.5t27.5 75.5h307q0 -92 -29.5 -168t-83 -129.5t-129 -83t-167.5 -29.5t-168 29.5t-129.5 83t-83 129t-29.5 168.5z" />
<glyph unicode="&#x41a;" horiz-adv-x="1536" d="M123 0v1434h532v-574l246 574h615l-390 -717l430 -717h-614l-287 573v-573h-532z" />
<glyph unicode="&#x41b;" horiz-adv-x="1638" d="M0 0v389h41q35 0 68.5 13.5t63.5 52.5t54.5 110.5t42 187t27.5 282.5t10 399h1209v-1434h-533v1004h-184q0 -289 -47 -487t-127 -319.5t-188.5 -175t-231.5 -53.5q-39 0 -76 4t-66 11q-35 8 -63 16z" />
<glyph unicode="&#x41c;" horiz-adv-x="2232" d="M123 0v1434h758l235 -779l236 779h757v-1434h-532v799l-246 -799h-430l-246 799v-799h-532z" />
<glyph unicode="&#x41d;" horiz-adv-x="1638" d="M123 0v1434h532v-492h328v492h533v-1434h-533v492h-328v-492h-532z" />
<glyph unicode="&#x41e;" horiz-adv-x="1761" d="M82 717q0 158 58.5 294t164 237.5t253 158.5t323.5 57t323.5 -57t253 -158.5t163.5 -237.5t58 -294t-58 -294t-163.5 -237.5t-253 -159t-323.5 -57.5t-323.5 57.5t-253 159t-164 237.5t-58.5 294zM655 717q0 -53 17.5 -98.5t48.5 -78t72 -51t88 -18.5q45 0 86 18.5 t71.5 51t49 78t18.5 98.5t-18.5 98t-49 78t-71.5 51.5t-86 18.5q-47 0 -88 -18.5t-72 -51.5t-48.5 -78t-17.5 -98z" />
<glyph unicode="&#x41f;" horiz-adv-x="1638" d="M123 0v1434h1393v-1434h-533v983h-328v-983h-532z" />
<glyph unicode="&#x420;" horiz-adv-x="1454" d="M123 0v1434q86 4 184 10q86 4 196.5 7t233.5 3q168 0 292 -37t205 -102.5t120 -158.5t39 -204t-38 -204t-108.5 -158.5t-173 -102t-233.5 -36.5q-31 0 -64 1t-59 3q-33 2 -62 6v-461h-532zM655 840h82q53 0 88 32.5t35 79.5t-34.5 80t-88.5 33h-82v-225z" />
<glyph unicode="&#x421;" horiz-adv-x="1454" d="M82 717q0 158 58.5 294t159.5 237.5t239.5 158.5t300.5 57q147 0 253.5 -35.5t178.5 -76.5q82 -51 141 -113l-246 -389q-37 31 -80 55q-37 23 -85 40.5t-101 17.5q-109 0 -177.5 -69t-68.5 -177q0 -109 69 -177.5t177 -68.5q53 0 101.5 16.5t84.5 38.5q43 25 80 58 l246 -389q-59 -63 -141 -113q-72 -43 -178.5 -78t-253.5 -35q-162 0 -300.5 57.5t-239.5 159t-159.5 237.5t-58.5 294z" />
<glyph unicode="&#x422;" horiz-adv-x="1392" d="M41 963v471h1311v-471h-389v-963h-533v963h-389z" />
<glyph unicode="&#x423;" horiz-adv-x="1454" d="M20 1434h615l133 -471l113 471h614l-440 -942q-123 -262 -262.5 -392.5t-331.5 -130.5q-78 0 -141.5 16.5t-110.5 39.5q-53 25 -96 57l123 389q25 -12 51 -20q23 -8 52.5 -14.5t59.5 -6.5q23 0 38.5 9.5t25.5 21.5t18 31z" />
<glyph unicode="&#x424;" horiz-adv-x="2048" d="M41 717q0 115 46 216t136 176t224.5 118t310.5 43v164h532v-164q176 0 310.5 -43t224.5 -118t136 -176.5t46 -215.5q0 -115 -46 -216.5t-136 -176t-224.5 -117.5t-310.5 -43v-164h-532v164q-176 0 -310.5 43t-224.5 117.5t-136 176t-46 216.5zM573 717q0 -92 53.5 -148.5 t131.5 -56.5v410q-78 0 -131.5 -56.5t-53.5 -148.5zM1290 512q78 0 131.5 56.5t53.5 148.5t-53.5 148.5t-131.5 56.5v-410z" />
<glyph unicode="&#x425;" horiz-adv-x="1515" d="M-20 0l409 717l-389 717h614l144 -390l143 390h615l-390 -717l410 -717h-614l-164 430l-164 -430h-614z" />
<glyph unicode="&#x426;" horiz-adv-x="1679" d="M123 0v1434h532v-983h308v983h532v-983h164v-717h-533v266h-1003z" />
<glyph unicode="&#x427;" horiz-adv-x="1556" d="M102 942v492h533v-492q0 -61 40 -102t93 -41t93 41t40 102v492h533v-1434h-533v471q-37 -29 -84 -51q-41 -20 -97 -35.5t-126 -15.5q-231 0 -361.5 140t-130.5 433z" />
<glyph unicode="&#x428;" horiz-adv-x="2273" d="M123 0v1434h532v-983h215v983h533v-983h215v983h532v-1434h-2027z" />
<glyph unicode="&#x429;" horiz-adv-x="2334" d="M123 0v1434h532v-983h215v983h533v-983h215v983h532v-983h164v-717h-532v266h-1659z" />
<glyph unicode="&#x42a;" horiz-adv-x="1597" d="M20 963v471h799v-420q25 2 51 4q23 2 52.5 4t60.5 2q131 0 233.5 -37t173 -105.5t108.5 -164.5t38 -215t-39 -215.5t-120 -165t-204.5 -105t-291.5 -36.5q-123 0 -231.5 3t-188.5 7q-96 4 -174 10v963h-267zM819 369h62q53 0 88 35.5t35 97.5q0 61 -35 97t-88 36h-62 v-266z" />
<glyph unicode="&#x42b;" horiz-adv-x="2129" d="M123 0v1434h532v-420q25 2 52 4q23 2 52 4t60 2q131 0 233.5 -37t173 -105.5t108.5 -164.5t38 -215t-39 -215.5t-119.5 -165t-204.5 -105t-292 -36.5q-123 0 -231.5 3t-188.5 7q-96 4 -174 10zM655 369h62q53 0 88 35.5t35 97.5q0 61 -35 97t-88 36h-62v-266zM1475 0 v1434h532v-1434h-532z" />
<glyph unicode="&#x42c;" horiz-adv-x="1454" d="M123 0v1434h532v-420q29 2 62 4q27 2 59.5 4t63.5 2q131 0 233.5 -37t173 -105.5t108.5 -164.5t38 -215t-39 -215.5t-120 -165t-205 -105t-292 -36.5q-123 0 -233.5 3t-196.5 7q-98 4 -184 10zM655 369h82q53 0 88 35.5t35 97.5q0 61 -34.5 97t-88.5 36h-82v-266z" />
<glyph unicode="&#x42d;" horiz-adv-x="1454" d="M41 195l225 348q37 -33 80 -58q37 -23 85 -39t101 -16q70 0 114 19.5t73 42.5q31 27 49 61h-338v328h338q-18 35 -49 61q-29 23 -73 42.5t-114 19.5q-53 0 -101 -17.5t-85 -40.5q-43 -25 -80 -55l-225 348q59 61 141 113q72 41 178.5 76.5t253.5 35.5q162 0 300.5 -57 t239.5 -158.5t159.5 -238t58.5 -293.5q0 -158 -58.5 -294t-159.5 -237.5t-239.5 -159t-300.5 -57.5q-147 0 -253.5 35t-178.5 78q-82 49 -141 113z" />
<glyph unicode="&#x42e;" horiz-adv-x="2334" d="M123 0v1434h532v-492h154q41 145 131 260q39 49 91 96.5t123 84t161 59t201 22.5q162 0 297 -55t233 -153.5t152.5 -235.5t54.5 -303t-54.5 -303.5t-152.5 -235.5t-233.5 -153.5t-296.5 -55.5q-111 0 -201 22.5t-161 58.5t-123 83t-91 96q-90 115 -131 263h-154v-492 h-532zM1352 717q0 -123 51.5 -184.5t112.5 -61.5t112 61.5t51 184.5t-51 184.5t-112 61.5t-112.5 -61.5t-51.5 -184.5z" />
<glyph unicode="&#x42f;" horiz-adv-x="1515" d="M-20 0l348 553q-53 33 -92 88q-35 47 -64 123t-29 188q0 111 39 204t120 158.5t204 102.5t293 37q117 0 222 -3t189 -7q98 -6 183 -10v-1434h-533v471h-20l-246 -471h-614zM676 952q0 -47 34.5 -79.5t88.5 -32.5h61v225h-61q-53 0 -88 -33t-35 -80z" />
<glyph unicode="&#x430;" horiz-adv-x="1269" d="M41 307q0 74 27.5 135.5t87 106.5t152.5 70.5t224 25.5h164q-8 31 -30 55q-20 23 -56.5 40.5t-97.5 17.5q-39 0 -72.5 -12.5t-58.5 -28.5q-29 -18 -53 -41l-174 276q45 45 110 82q55 31 135.5 56.5t184.5 25.5q131 0 241.5 -45t191.5 -123t126 -182t45 -223v-543h-471 l-41 123q-27 -43 -64 -78q-33 -29 -83 -52.5t-119 -23.5q-84 0 -153 25.5t-117 71t-73.5 106.5t-25.5 135zM532 358q0 -23 19.5 -42t42.5 -19q39 0 70.5 41t31.5 133q-86 0 -125 -32.5t-39 -80.5z" />
<glyph unicode="&#x431;" horiz-adv-x="1331" d="M61 676v82q0 362 184.5 549.5t532.5 187.5q82 0 82 82h389q0 -123 -21.5 -206t-75.5 -132t-145.5 -70.5t-228.5 -21.5q-154 0 -230.5 -68.5t-76.5 -177.5q35 39 86 72q41 27 102.5 49t139.5 22q100 0 186 -36.5t149.5 -102t99.5 -159t36 -203.5q0 -119 -45 -223.5 t-126 -182.5t-191.5 -123t-241.5 -45t-242 47t-191.5 137.5t-126 221.5t-45.5 301zM553 543q0 -78 32.5 -116t80.5 -38q47 0 79.5 38t32.5 116t-32.5 115.5t-79.5 37.5t-80 -37.5t-33 -115.5z" />
<glyph unicode="&#x432;" horiz-adv-x="1208" d="M102 0v1085q59 4 136 11q66 4 154.5 7t201.5 3q131 0 227.5 -28.5t159.5 -75t94 -104.5t31 -120q0 -61 -24.5 -103t-53.5 -67q-35 -29 -76 -45v-10q59 -16 107 -49q41 -29 74.5 -77t33.5 -120q0 -61 -31.5 -120.5t-100 -105.5t-175 -73.5t-256.5 -27.5q-117 0 -209 3 t-157 7q-78 4 -136 10zM573 287h31q31 0 51.5 19.5t20.5 41.5q0 23 -20.5 42.5t-51.5 19.5h-31v-123zM573 676q39 0 60.5 19.5t21.5 41.5q0 23 -21.5 42.5t-60.5 19.5v-123z" />
<glyph unicode="&#x433;" horiz-adv-x="1044" d="M123 0v1085h901v-430h-410v-655h-491z" />
<glyph unicode="&#x434;" horiz-adv-x="1331" d="M0 -225v614h102q29 43 52 133q18 78 34.5 212t16.5 351h962v-696h144v-614h-492v225h-327v-225h-492zM553 389h143v307h-82q0 -70 -10 -126t-20 -97q-14 -47 -31 -84z" />
<glyph unicode="&#x435;" horiz-adv-x="1249" d="M61 543q0 119 45.5 223t123 182t182 123t223.5 45t223.5 -45t182 -123t122.5 -182t45 -223v-103h-655q8 -33 31 -57q18 -23 55 -39t98 -16q39 0 73 12t58 29q29 18 54 41l174 -277q-45 -45 -111 -82q-55 -31 -135 -56.5t-184 -25.5q-131 0 -242 45t-191.5 123t-126 182.5 t-45.5 223.5zM543 635h184q0 61 -26.5 92t-65.5 31t-65.5 -31t-26.5 -92z" />
<glyph unicode="&#x436;" horiz-adv-x="1945" d="M-20 0l327 553l-287 532h533l174 -409v409h492v-409l174 409h532l-287 -532l328 -553h-543l-204 430v-430h-492v430l-205 -430h-542z" />
<glyph unicode="&#x437;" horiz-adv-x="1054" d="M20 164l154 246q29 -29 66 -52q31 -20 71.5 -35.5t87.5 -15.5q39 0 60.5 19.5t21.5 42.5t-21.5 42t-60.5 19h-123v225h144q39 0 60.5 19.5t21.5 42.5t-21.5 42t-60.5 19q-47 0 -85 -12t-65 -29q-33 -18 -55 -41l-154 246q55 49 125 86q59 33 146.5 60.5t199.5 27.5 q111 0 197 -27.5t144.5 -72.5t89 -102.5t30.5 -114.5q0 -70 -28.5 -115t-63.5 -72q-41 -33 -92 -49v-10q57 -18 102 -53q39 -29 71 -81t32 -132q0 -57 -31 -114.5t-89 -102.5t-144 -73t-197 -28q-135 0 -235.5 30t-165.5 67q-78 43 -132 98z" />
<glyph unicode="&#x438;" horiz-adv-x="1392" d="M102 0v1085h492v-471l184 471h512v-1085h-491v471l-185 -471h-512z" />
<glyph unicode="&#x439;" horiz-adv-x="1392" d="M102 0v1085h492v-471l184 471h512v-1085h-491v471l-185 -471h-512zM307 1618h307q0 -82 82 -82t82 82h307q0 -178 -105.5 -283.5t-283.5 -105.5t-283.5 105.5t-105.5 283.5z" />
<glyph unicode="&#x43a;" horiz-adv-x="1320" d="M102 0v1085h492v-409l174 409h532l-286 -532l327 -553h-542l-205 430v-430h-492z" />
<glyph unicode="&#x43b;" horiz-adv-x="1310" d="M0 0v348h41q39 0 68.5 20.5t51 95.5t33 221t11.5 400h1003v-1085h-491v676h-82q0 -197 -33 -331t-92 -218t-142 -121t-184 -37q-31 0 -63.5 4t-59.5 11q-33 8 -61 16z" />
<glyph unicode="&#x43c;" horiz-adv-x="1884" d="M102 0v1085h676l164 -532l164 532h676v-1085h-492v594l-184 -594h-328l-184 594v-594h-492z" />
<glyph unicode="&#x43d;" horiz-adv-x="1351" d="M102 0v1085h492v-348h164v348h491v-1085h-491v348h-164v-348h-492z" />
<glyph unicode="&#x43e;" d="M61 543q0 119 46.5 223t128 182t196.5 123t254 45q137 0 253 -45t198 -123t128 -182t46 -223t-46 -223.5t-128 -182.5t-198 -123t-253 -45q-139 0 -254 45t-196.5 123t-128 182.5t-46.5 223.5zM553 543q0 -70 40 -112t93 -42t93 42t40 112t-40 111.5t-93 41.5t-93 -42 t-40 -111z" />
<glyph unicode="&#x43f;" horiz-adv-x="1351" d="M102 0v1085h1147v-1085h-491v676h-164v-676h-492z" />
<glyph unicode="&#x440;" d="M102 -512v1597h451l41 -122q25 41 65 75q35 29 89.5 53.5t132.5 24.5q84 0 161.5 -38t137 -110.5t95.5 -180t36 -244.5q0 -139 -36 -246t-95.5 -179.5t-137 -110.5t-161.5 -38q-78 0 -132.5 23.5t-89.5 52.5q-41 35 -65 78v-635h-492zM573 543q0 -78 33 -116t80 -38 t80 38t33 116t-33 115.5t-80 37.5t-80 -37.5t-33 -115.5z" />
<glyph unicode="&#x441;" horiz-adv-x="1146" d="M61 543q0 119 45.5 223t126 182t191.5 123t242 45q111 0 196.5 -27.5t145.5 -60.5q68 -37 118 -86l-204 -328q-25 23 -54 41q-25 16 -58.5 28.5t-72.5 12.5q-78 0 -121 -41.5t-43 -111.5t43 -112t121 -42q39 0 73 12.5t58 28.5q29 18 54 41l204 -328q-51 -51 -118 -88 q-59 -33 -145.5 -59.5t-196.5 -26.5q-131 0 -242 45t-191.5 123t-126 182.5t-45.5 223.5z" />
<glyph unicode="&#x442;" horiz-adv-x="1064" d="M20 655v430h1024v-430h-266v-655h-491v655h-267z" />
<glyph unicode="&#x443;" horiz-adv-x="1208" d="M0 1085h512l92 -573l92 573h512l-389 -1167q-47 -139 -98 -236.5t-113.5 -159t-138.5 -89t-172 -27.5q-53 0 -101.5 12.5t-84.5 28.5q-43 18 -80 41l112 358q10 -6 21 -10q20 -10 51 -10q39 0 68.5 26.5t44.5 65.5l30 82z" />
<glyph unicode="&#x444;" horiz-adv-x="2048" d="M61 543q0 137 36 244.5t95.5 180t137.5 110.5t162 38q78 0 131 -24.5t88 -53.5q39 -35 67 -75v553h492v-553q25 41 65 75q35 29 89.5 53.5t131.5 24.5q84 0 162 -38t137.5 -110.5t95.5 -180t36 -244.5q0 -139 -36 -246t-95.5 -179.5t-137.5 -110.5t-162 -38 q-78 0 -132 23.5t-89 52.5q-41 35 -65 78v-635h-492v635q-29 -43 -67 -78q-35 -29 -88.5 -52.5t-130.5 -23.5q-84 0 -162 38t-137.5 110.5t-95.5 179t-36 246.5zM573 543q0 -78 33 -116t80 -38t80 38t33 116t-33 115.5t-80 37.5t-80 -37.5t-33 -115.5zM1249 543 q0 -78 33 -116t80 -38t80 38t33 116t-33 115.5t-80 37.5t-80 -37.5t-33 -115.5z" />
<glyph unicode="&#x445;" horiz-adv-x="1228" d="M-20 0l307 543l-277 542h522l82 -266l82 266h523l-277 -542l307 -543h-553l-82 266l-82 -266h-552z" />
<glyph unicode="&#x446;" horiz-adv-x="1413" d="M102 0v1085h492v-675h164v675h491v-675h144v-635h-492v225h-799z" />
<glyph unicode="&#x447;" horiz-adv-x="1290" d="M82 758v327h491v-327q0 -39 19.5 -60.5t42.5 -21.5t42 21.5t19 60.5v327h492v-1085h-492v307q-25 -16 -57 -26q-29 -10 -69 -17.5t-89 -7.5q-88 0 -161.5 30.5t-126 93t-82 157t-29.5 221.5z" />
<glyph unicode="&#x448;" horiz-adv-x="1925" d="M102 0v1085h492v-675h123v675h2h489v-675h123v675h492v-1085h-1721z" />
<glyph unicode="&#x449;" horiz-adv-x="1986" d="M102 0v1085h492v-675h123v675h491v-675h123v675h492v-675h143v-635h-491v225h-1373z" />
<glyph unicode="&#x44a;" horiz-adv-x="1320" d="M20 655v430h717v-297q16 2 35 5q16 2 33.5 4t34.5 2q96 0 177 -33t139 -88t91 -130t33 -159t-35 -158.5t-102.5 -130t-169 -88t-236.5 -32.5q-113 0 -202 3t-154 7q-76 4 -135 10v655h-226zM717 307q92 0 92 82t-92 82v-164z" />
<glyph unicode="&#x44b;" horiz-adv-x="1792" d="M102 0v1085h492v-297q16 2 35 5q16 2 33.5 4t33.5 2q96 0 177 -33t139.5 -88t91.5 -130t33 -159t-35 -158.5t-102.5 -130t-169 -88t-236.5 -32.5q-113 0 -202 3t-154 7q-76 4 -136 10zM573 307q92 0 93 82q0 82 -93 82v-164zM1198 0v1085h492v-1085h-492z" />
<glyph unicode="&#x44c;" horiz-adv-x="1187" d="M102 0v1085h492v-297q16 2 37 5q16 2 36 4t40 2q96 0 177 -33t139 -88t91 -130t33 -159t-35 -158.5t-102.5 -130t-169 -88t-236.5 -32.5q-117 0 -209 3t-157 7q-78 4 -136 10zM573 307h31q31 0 51.5 21.5t20.5 60.5t-20.5 60.5t-51.5 21.5h-31v-164z" />
<glyph unicode="&#x44d;" horiz-adv-x="1146" d="M20 143l164 267q31 -27 66 -48q29 -16 67.5 -30.5t81.5 -14.5q53 0 88 15.5t58 36.5q25 23 39 51h-267v246h267q-14 29 -39 51q-23 18 -57.5 34.5t-88.5 16.5q-43 0 -81.5 -15.5t-67.5 -31.5q-35 -20 -66 -45l-164 266q51 49 119 86q59 33 144 60.5t198 27.5 q131 0 242 -45t191.5 -123t125.5 -182t45 -223t-45 -223.5t-125.5 -182.5t-191.5 -123t-242 -45q-113 0 -197.5 27t-144.5 59q-68 37 -119 88z" />
<glyph unicode="&#x44e;" horiz-adv-x="1904" d="M102 0v1085h492v-348h92q41 106 117 189q33 35 75 69.5t97 61t122.5 43t151.5 16.5q131 0 239.5 -44t187.5 -121t123 -181t44 -227t-44 -228.5t-123 -182.5t-187.5 -120t-239.5 -43q-84 0 -151.5 16.5t-122.5 43t-97 60.5t-75 69q-76 82 -117 190h-92v-348h-492z M1147 543q0 -78 31.5 -116t70.5 -38t71 38t32 116t-32 115.5t-71 37.5t-70.5 -37.5t-31.5 -115.5z" />
<glyph unicode="&#x44f;" horiz-adv-x="1290" d="M-20 0l266 451q-41 29 -72 69q-29 35 -50.5 86t-21.5 121q0 74 35 141.5t104.5 120.5t176 85t248.5 32q117 0 212 -3t164 -7q82 -6 146 -11v-1085h-492v348h-10l-164 -348h-542zM594 707q0 -31 20.5 -51.5t51.5 -20.5h51v143h-51q-31 0 -51.5 -20.5t-20.5 -50.5z" />
<glyph unicode="&#x451;" horiz-adv-x="1249" d="M61 543q0 119 45.5 223t123 182t182 123t223.5 45t223.5 -45t182 -123t122.5 -182t45 -223v-103h-655q8 -33 31 -57q18 -23 55 -39t98 -16q39 0 73 12t58 29q29 18 54 41l174 -277q-45 -45 -111 -82q-55 -31 -135 -56.5t-184 -25.5q-131 0 -242 45t-191.5 123t-126 182.5 t-45.5 223.5zM225 1393q0 78 53.5 131t131.5 53t131 -53t53 -131t-53.5 -131.5t-130.5 -53.5q-78 0 -131.5 53.5t-53.5 131.5zM543 635h184q0 61 -26.5 92t-65.5 31t-65.5 -31t-26.5 -92zM676 1393q0 78 53 131t131 53t131 -53t53 -131t-53 -131.5t-131 -53.5t-131 53.5 t-53 131.5z" />
<glyph unicode="&#x452;" horiz-adv-x="1351" d="M0 1085v267h143v164h492v-164h205v-267h-205v-245q31 49 74 86q37 33 90 60.5t123 27.5q76 0 143.5 -32t117.5 -97.5t78.5 -169t28.5 -244.5v-154q0 -254 -128 -388t-343 -134q-61 0 -102 10q-23 4 -41 11v409q4 -4 12 -6q16 -4 29 -4q31 0 56.5 27.5t25.5 74.5v154 q0 61 -25.5 92t-56.5 31t-56.5 -31t-25.5 -92v-471h-492v1085h-143z" />
<glyph unicode="&#x453;" horiz-adv-x="1024" d="M105 0v1085h901v-430h-410v-655h-491zM368 1229l185 430h430l-287 -430h-328z" />
<glyph unicode="&#x454;" horiz-adv-x="1146" d="M61 543q0 119 45.5 223t126 182t191.5 123t242 45q111 0 196.5 -27.5t145.5 -60.5q68 -37 118 -86l-163 -266q-31 25 -66 45q-29 16 -69 31.5t-80 15.5q-53 0 -88 -16.5t-58 -34.5q-25 -23 -39 -51h266v-246h-266q14 -29 39 -51q23 -20 57.5 -36t88.5 -16q41 0 80.5 14.5 t68.5 30.5q35 20 66 48l163 -267q-51 -51 -118 -88q-59 -33 -145.5 -59.5t-196.5 -26.5q-131 0 -242 45t-191.5 123t-126 182.5t-45.5 223.5z" />
<glyph unicode="&#x455;" horiz-adv-x="1054" d="M20 164l154 246q31 -29 70 -52q35 -20 81 -35.5t105 -15.5q23 0 37 12.5t14 28.5q0 14 -29.5 28.5t-73.5 33t-96.5 44t-96.5 65.5t-73.5 98.5t-29.5 140.5q0 74 30.5 138.5t91 113.5t150.5 77.5t209 28.5q104 0 187.5 -27.5t142.5 -60.5q68 -37 121 -86l-154 -246 q-25 23 -55 41q-27 16 -62.5 28.5t-76.5 12.5q-23 0 -37.5 -12t-14.5 -29q0 -16 30 -29.5t74 -32t96 -44t96 -65.5t74 -98t30 -140q0 -74 -31 -138.5t-91.5 -113.5t-150.5 -78t-209 -29q-129 0 -223 30t-159 67q-76 43 -130 98z" />
<glyph unicode="&#x456;" horiz-adv-x="696" d="M102 0v1085h492v-1085h-492zM102 1208v389h492v-389h-492z" />
<glyph unicode="&#x457;" horiz-adv-x="696" d="M-61 1413q0 78 53 131t131 53t131 -53t53 -131t-53 -131t-131 -53t-131 53t-53 131zM92 0v1085h492v-1085h-492zM389 1413q0 78 53.5 131t130.5 53q78 0 131.5 -53t53.5 -131t-53.5 -131t-131.5 -53t-131 53t-53 131z" />
<glyph unicode="&#x458;" horiz-adv-x="696" d="M-82 -164q10 -4 25 -6q10 -2 25.5 -3t31.5 -1q47 0 74.5 30.5t27.5 92.5v1136h492v-1136q0 -270 -130 -406.5t-362 -136.5q-39 0 -72.5 3t-58.5 7q-29 4 -53 11v409zM102 1208v389h492v-389h-492z" />
<glyph unicode="&#x459;" horiz-adv-x="1802" d="M0 0v348h41q39 0 68.5 20.5t51 95.5t33 221t11.5 400h1003v-297q16 2 37 5q16 2 36 4t40 2q96 0 177 -33t139.5 -88t91 -130t32.5 -159t-34.5 -158.5t-102.5 -130t-169 -88t-236 -32.5q-117 0 -209 3t-158 7q-78 4 -135 10v676h-82q0 -197 -33 -331t-92 -218t-142 -121 t-184 -37q-31 0 -63.5 4t-59.5 11q-33 8 -61 16zM1188 307h31q31 0 51 21.5t20 60.5t-20.5 60.5t-50.5 21.5h-31v-164z" />
<glyph unicode="&#x45a;" horiz-adv-x="1843" d="M102 0v1085h492v-348h164v348h491v-337q16 2 37 4q16 2 35.5 4t40.5 2q96 0 177 -32t139.5 -86t91 -125t32.5 -146q0 -78 -34.5 -147.5t-102.5 -124t-169 -86t-236 -31.5q-117 0 -209.5 3t-157.5 7q-78 4 -135 10v389h-164v-389h-492zM1229 307h31q31 0 51 19.5t20 42.5 t-20.5 42t-50.5 19h-31v-123z" />
<glyph unicode="&#x45b;" d="M0 1085v267h143v164h492v-164h205v-267h-205v-245q31 49 74 86q37 33 90 60.5t123 27.5q76 0 143.5 -32t117.5 -97.5t78.5 -169t28.5 -244.5v-471h-491v471q0 61 -25.5 92t-56.5 31t-56.5 -31t-25.5 -92v-471h-492v1085h-143z" />
<glyph unicode="&#x45c;" horiz-adv-x="1320" d="M102 0v1085h492v-409l174 409h532l-286 -532l327 -553h-542l-205 430v-430h-492zM512 1229l185 430h430l-287 -430h-328z" />
<glyph unicode="&#x45e;" horiz-adv-x="1208" d="M0 1085h512l92 -573l92 573h512l-389 -1167q-47 -139 -98 -236.5t-113.5 -159t-138.5 -89t-172 -27.5q-53 0 -101.5 12.5t-84.5 28.5q-43 18 -80 41l112 358q10 -6 21 -10q20 -10 51 -10q39 0 68.5 26.5t44.5 65.5l30 82zM204 1618h308q0 -82 82 -82t81 82h308 q0 -178 -105.5 -284t-283.5 -106t-284 105.5t-106 284.5z" />
<glyph unicode="&#x45f;" horiz-adv-x="1351" d="M102 0v1085h492v-675h164v675h491v-1085h-327v-225h-492v225h-328z" />
<glyph unicode="&#x490;" horiz-adv-x="1208" d="M123 0v1434h553v184h532v-655h-553v-963h-532z" />
<glyph unicode="&#x491;" horiz-adv-x="1003" d="M102 0v1085h410v164h492v-594h-410v-655h-492z" />
<glyph unicode="&#x2000;" horiz-adv-x="1003" />
<glyph unicode="&#x2001;" horiz-adv-x="2007" />
<glyph unicode="&#x2002;" horiz-adv-x="1003" />
<glyph unicode="&#x2003;" horiz-adv-x="2007" />
<glyph unicode="&#x2004;" horiz-adv-x="669" />
<glyph unicode="&#x2005;" horiz-adv-x="501" />
<glyph unicode="&#x2006;" horiz-adv-x="334" />
<glyph unicode="&#x2007;" horiz-adv-x="334" />
<glyph unicode="&#x2008;" horiz-adv-x="250" />
<glyph unicode="&#x2009;" horiz-adv-x="401" />
<glyph unicode="&#x200a;" horiz-adv-x="111" />
<glyph unicode="&#x2010;" horiz-adv-x="1003" d="M61 471v389h881v-389h-881z" />
<glyph unicode="&#x2011;" horiz-adv-x="1003" d="M61 471v389h881v-389h-881z" />
<glyph unicode="&#x2012;" horiz-adv-x="1003" d="M61 471v389h881v-389h-881z" />
<glyph unicode="&#x2013;" horiz-adv-x="1597" d="M61 430v348h1475v-348h-1475z" />
<glyph unicode="&#x2014;" horiz-adv-x="2109" d="M61 430v348h1987v-348h-1987z" />
<glyph unicode="&#x2018;" horiz-adv-x="655" d="M41 819l246 615h327l-143 -615h-430z" />
<glyph unicode="&#x2019;" horiz-adv-x="655" d="M41 819l143 615h430l-245 -615h-328z" />
<glyph unicode="&#x201a;" horiz-adv-x="614" d="M0 -205l143 615h430l-245 -615h-328z" />
<glyph unicode="&#x201c;" horiz-adv-x="1126" d="M41 819l246 615h307l-143 -615h-410zM532 819l246 615h307l-143 -615h-410z" />
<glyph unicode="&#x201d;" horiz-adv-x="1126" d="M41 819l143 615h410l-246 -615h-307zM532 819l144 615h409l-245 -615h-308z" />
<glyph unicode="&#x201e;" horiz-adv-x="1085" d="M0 -205l143 615h410l-246 -615h-307zM492 -205l143 615h409l-245 -615h-307z" />
<glyph unicode="&#x2022;" horiz-adv-x="901" d="M164 635q0 61 21.5 113.5t60.5 91.5t91 60.5t114 21.5q61 0 113 -21.5t91 -60.5t60.5 -91.5t21.5 -113.5t-21.5 -113.5t-60.5 -91.5t-91 -60.5t-113 -21.5t-113.5 21.5t-91.5 60.5t-60.5 91.5t-21.5 113.5z" />
<glyph unicode="&#x2026;" horiz-adv-x="1740" d="M82 0v410h430v-410h-430zM655 0v410h430v-410h-430zM1229 0v410h430v-410h-430z" />
<glyph unicode="&#x202f;" horiz-adv-x="401" />
<glyph unicode="&#x2039;" horiz-adv-x="696" d="M82 553l225 471h307l-225 -471l225 -471h-307z" />
<glyph unicode="&#x203a;" horiz-adv-x="696" d="M82 82l225 471l-225 471h307l225 -471l-225 -471h-307z" />
<glyph unicode="&#x205f;" horiz-adv-x="501" />
<glyph unicode="&#x20ac;" horiz-adv-x="1536" d="M0 573v103h164v82h-164v102h184q39 168 131 301q39 57 94.5 111.5t129 97.5t169 68.5t214.5 25.5q147 0 253.5 -35.5t178.5 -76.5q82 -51 141 -113l-225 -358q-37 31 -82 55q-39 23 -91.5 40t-113.5 17t-107.5 -21.5t-76.5 -45.5q-37 -29 -62 -66h328v-102h-358v-82h358 v-103h-328q25 -39 62 -67q31 -25 77 -45.5t107 -20.5t113.5 16.5t91.5 39.5q45 25 82 57l225 -358q-59 -63 -141 -113q-72 -43 -178.5 -78t-253.5 -35q-119 0 -214.5 25.5t-169 67.5t-129 96.5t-94.5 111.5q-92 133 -131 303h-184z" />
<glyph unicode="&#x2122;" horiz-adv-x="1710" d="M41 1208v226h594v-226h-164v-368h-266v368h-164zM686 840v594h369l102 -328l103 328h368v-594h-266v327l-102 -327h-205l-103 327v-327h-266z" />
<glyph unicode="&#x25fc;" horiz-adv-x="1085" d="M0 0v1085h1085v-1085h-1085z" />
</font>
</defs>
</svg>
